<?xml version="1.0" encoding="UTF-8"?>
<svg xmlns="http://www.w3.org/2000/svg" version="1.1" width="100" height="100" viewBox="0 0 100 100"><rect x="0" y="0" width="100" height="100" fill="#ffffff"/><g transform="scale(2.041)"><g transform="translate(0,0)"><path fill-rule="evenodd" d="M8 0L8 1L9 1L9 2L8 2L8 3L9 3L9 4L8 4L8 5L9 5L9 6L8 6L8 8L9 8L9 6L10 6L10 8L11 8L11 9L9 9L9 10L10 10L10 11L8 11L8 9L7 9L7 8L5 8L5 9L1 9L1 10L0 10L0 13L1 13L1 14L2 14L2 15L1 15L1 17L3 17L3 18L2 18L2 19L3 19L3 20L4 20L4 23L2 23L2 22L0 22L0 24L1 24L1 25L0 25L0 26L1 26L1 27L0 27L0 28L5 28L5 31L7 31L7 30L8 30L8 32L9 32L9 33L10 33L10 34L8 34L8 33L7 33L7 32L6 32L6 33L7 33L7 34L5 34L5 35L4 35L4 34L3 34L3 33L2 33L2 35L0 35L0 36L1 36L1 37L0 37L0 38L1 38L1 40L0 40L0 41L3 41L3 40L4 40L4 39L2 39L2 38L1 38L1 37L3 37L3 38L4 38L4 37L3 37L3 36L2 36L2 35L4 35L4 36L5 36L5 37L8 37L8 38L5 38L5 39L8 39L8 40L9 40L9 41L8 41L8 42L9 42L9 41L11 41L11 43L13 43L13 45L15 45L15 44L14 44L14 42L17 42L17 43L16 43L16 44L17 44L17 45L18 45L18 46L16 46L16 47L19 47L19 49L21 49L21 48L23 48L23 47L21 47L21 46L22 46L22 45L24 45L24 47L25 47L25 48L24 48L24 49L27 49L27 47L28 47L28 49L29 49L29 47L28 47L28 43L27 43L27 42L28 42L28 41L32 41L32 43L33 43L33 39L32 39L32 38L34 38L34 35L35 35L35 37L36 37L36 38L35 38L35 39L34 39L34 40L35 40L35 42L34 42L34 43L35 43L35 42L36 42L36 44L34 44L34 47L33 47L33 44L32 44L32 45L30 45L30 46L31 46L31 47L30 47L30 48L32 48L32 49L34 49L34 47L35 47L35 45L36 45L36 46L37 46L37 42L36 42L36 41L38 41L38 40L39 40L39 41L40 41L40 43L39 43L39 42L38 42L38 43L39 43L39 44L38 44L38 46L39 46L39 47L41 47L41 48L39 48L39 49L41 49L41 48L42 48L42 49L44 49L44 48L42 48L42 47L41 47L41 46L43 46L43 47L44 47L44 46L45 46L45 47L47 47L47 48L46 48L46 49L47 49L47 48L48 48L48 49L49 49L49 48L48 48L48 47L49 47L49 44L48 44L48 43L49 43L49 40L48 40L48 39L47 39L47 38L46 38L46 37L48 37L48 36L44 36L44 35L43 35L43 37L41 37L41 35L40 35L40 36L39 36L39 39L38 39L38 40L37 40L37 37L38 37L38 36L37 36L37 35L39 35L39 33L38 33L38 34L37 34L37 35L36 35L36 34L34 34L34 33L36 33L36 32L38 32L38 31L39 31L39 30L40 30L40 31L41 31L41 30L40 30L40 28L41 28L41 29L43 29L43 32L44 32L44 33L43 33L43 34L44 34L44 33L45 33L45 32L46 32L46 34L45 34L45 35L49 35L49 34L48 34L48 33L49 33L49 32L47 32L47 31L46 31L46 30L48 30L48 31L49 31L49 27L48 27L48 28L47 28L47 29L46 29L46 30L45 30L45 32L44 32L44 29L43 29L43 28L45 28L45 26L47 26L47 25L48 25L48 26L49 26L49 25L48 25L48 24L47 24L47 23L49 23L49 19L48 19L48 18L46 18L46 17L44 17L44 16L45 16L45 15L46 15L46 16L47 16L47 14L46 14L46 12L45 12L45 14L44 14L44 12L43 12L43 11L42 11L42 10L43 10L43 8L42 8L42 9L41 9L41 6L40 6L40 8L39 8L39 9L40 9L40 11L39 11L39 10L38 10L38 11L39 11L39 12L40 12L40 13L38 13L38 15L37 15L37 14L35 14L35 13L36 13L36 12L37 12L37 6L38 6L38 7L39 7L39 5L38 5L38 4L37 4L37 5L36 5L36 4L33 4L33 3L35 3L35 2L39 2L39 4L40 4L40 3L41 3L41 0L40 0L40 1L36 1L36 0L33 0L33 3L32 3L32 4L31 4L31 3L29 3L29 4L31 4L31 5L30 5L30 7L29 7L29 5L28 5L28 2L29 2L29 1L30 1L30 2L31 2L31 1L30 1L30 0L28 0L28 1L27 1L27 0L25 0L25 1L23 1L23 2L21 2L21 0L19 0L19 3L18 3L18 0L16 0L16 1L17 1L17 2L16 2L16 3L18 3L18 4L17 4L17 6L16 6L16 7L15 7L15 5L16 5L16 4L13 4L13 3L15 3L15 2L13 2L13 1L15 1L15 0L13 0L13 1L12 1L12 0L11 0L11 1L9 1L9 0ZM11 1L11 2L10 2L10 4L9 4L9 5L10 5L10 4L11 4L11 8L13 8L13 11L12 11L12 12L13 12L13 13L11 13L11 14L9 14L9 13L8 13L8 15L6 15L6 16L8 16L8 17L9 17L9 18L10 18L10 17L11 17L11 20L10 20L10 19L9 19L9 20L8 20L8 21L9 21L9 22L10 22L10 23L11 23L11 24L9 24L9 25L11 25L11 24L12 24L12 25L13 25L13 24L14 24L14 23L15 23L15 24L20 24L20 26L19 26L19 25L18 25L18 26L17 26L17 25L15 25L15 27L13 27L13 26L11 26L11 27L13 27L13 28L11 28L11 29L10 29L10 30L9 30L9 31L10 31L10 30L12 30L12 29L13 29L13 28L16 28L16 29L17 29L17 28L18 28L18 27L20 27L20 28L22 28L22 29L20 29L20 30L19 30L19 29L18 29L18 30L19 30L19 31L20 31L20 33L19 33L19 34L18 34L18 35L16 35L16 34L17 34L17 32L16 32L16 31L17 31L17 30L16 30L16 31L15 31L15 32L14 32L14 31L13 31L13 32L14 32L14 33L12 33L12 31L11 31L11 32L10 32L10 33L12 33L12 34L10 34L10 35L8 35L8 34L7 34L7 35L5 35L5 36L7 36L7 35L8 35L8 36L10 36L10 35L11 35L11 38L10 38L10 39L9 39L9 40L10 40L10 39L11 39L11 38L12 38L12 37L13 37L13 39L15 39L15 40L14 40L14 41L15 41L15 40L17 40L17 41L18 41L18 40L19 40L19 41L21 41L21 38L22 38L22 39L23 39L23 40L29 40L29 39L30 39L30 38L28 38L28 39L26 39L26 38L27 38L27 37L31 37L31 38L32 38L32 36L33 36L33 35L34 35L34 34L33 34L33 33L30 33L30 34L29 34L29 33L28 33L28 32L29 32L29 31L27 31L27 30L29 30L29 29L28 29L28 28L30 28L30 30L32 30L32 29L33 29L33 30L37 30L37 31L38 31L38 29L39 29L39 28L40 28L40 24L39 24L39 23L38 23L38 21L37 21L37 20L36 20L36 18L37 18L37 17L38 17L38 16L39 16L39 15L38 15L38 16L37 16L37 15L36 15L36 16L35 16L35 14L33 14L33 13L32 13L32 12L33 12L33 9L34 9L34 8L35 8L35 9L36 9L36 8L35 8L35 7L36 7L36 5L34 5L34 6L33 6L33 7L32 7L32 6L31 6L31 9L32 9L32 11L30 11L30 12L31 12L31 15L28 15L28 14L29 14L29 10L27 10L27 9L30 9L30 8L28 8L28 5L27 5L27 9L23 9L23 11L22 11L22 13L20 13L20 12L19 12L19 11L20 11L20 10L22 10L22 9L20 9L20 8L18 8L18 6L17 6L17 8L18 8L18 10L17 10L17 9L15 9L15 7L14 7L14 6L13 6L13 7L12 7L12 3L13 3L13 2L12 2L12 1ZM25 1L25 2L26 2L26 4L27 4L27 1ZM34 1L34 2L35 2L35 1ZM11 2L11 3L12 3L12 2ZM20 2L20 3L21 3L21 4L19 4L19 7L20 7L20 6L21 6L21 7L22 7L22 5L21 5L21 4L22 4L22 3L21 3L21 2ZM23 2L23 3L24 3L24 4L25 4L25 3L24 3L24 2ZM32 4L32 5L33 5L33 4ZM23 5L23 8L26 8L26 5ZM24 6L24 7L25 7L25 6ZM34 6L34 7L33 7L33 8L34 8L34 7L35 7L35 6ZM44 8L44 9L45 9L45 10L44 10L44 11L45 11L45 10L46 10L46 11L47 11L47 12L49 12L49 11L47 11L47 8L46 8L46 9L45 9L45 8ZM48 8L48 10L49 10L49 8ZM5 9L5 10L3 10L3 11L2 11L2 10L1 10L1 13L2 13L2 14L3 14L3 15L2 15L2 16L3 16L3 17L4 17L4 18L3 18L3 19L4 19L4 20L5 20L5 22L7 22L7 21L6 21L6 20L7 20L7 19L8 19L8 18L7 18L7 17L6 17L6 18L5 18L5 17L4 17L4 16L3 16L3 15L4 15L4 13L3 13L3 12L4 12L4 11L5 11L5 13L6 13L6 14L7 14L7 13L6 13L6 12L8 12L8 11L5 11L5 10L7 10L7 9ZM14 9L14 10L15 10L15 11L16 11L16 10L15 10L15 9ZM19 9L19 10L20 10L20 9ZM24 10L24 12L23 12L23 13L22 13L22 14L23 14L23 13L24 13L24 14L25 14L25 15L23 15L23 17L22 17L22 18L23 18L23 19L22 19L22 20L21 20L21 21L20 21L20 22L19 22L19 23L20 23L20 24L21 24L21 25L22 25L22 26L21 26L21 27L22 27L22 28L24 28L24 29L25 29L25 27L28 27L28 26L27 26L27 20L28 20L28 25L29 25L29 24L30 24L30 25L31 25L31 26L30 26L30 28L31 28L31 26L32 26L32 25L33 25L33 26L35 26L35 27L34 27L34 28L33 28L33 27L32 27L32 28L33 28L33 29L35 29L35 28L36 28L36 29L38 29L38 26L39 26L39 25L38 25L38 26L37 26L37 25L36 25L36 26L35 26L35 25L34 25L34 22L35 22L35 23L36 23L36 22L37 22L37 21L35 21L35 20L33 20L33 21L32 21L32 18L33 18L33 19L35 19L35 18L36 18L36 17L37 17L37 16L36 16L36 17L35 17L35 16L34 16L34 15L33 15L33 14L32 14L32 15L31 15L31 17L30 17L30 19L31 19L31 20L30 20L30 21L29 21L29 20L28 20L28 19L29 19L29 16L27 16L27 17L26 17L26 18L27 18L27 17L28 17L28 19L27 19L27 20L26 20L26 21L24 21L24 22L21 22L21 21L23 21L23 20L25 20L25 17L24 17L24 16L25 16L25 15L27 15L27 14L25 14L25 10ZM34 10L34 13L35 13L35 12L36 12L36 10ZM10 11L10 12L11 12L11 11ZM13 11L13 12L14 12L14 11ZM17 11L17 13L16 13L16 12L15 12L15 13L13 13L13 14L11 14L11 15L9 15L9 17L10 17L10 16L11 16L11 17L12 17L12 16L13 16L13 19L12 19L12 21L11 21L11 22L14 22L14 18L15 18L15 17L17 17L17 19L18 19L18 17L17 17L17 16L18 16L18 15L19 15L19 14L20 14L20 15L21 15L21 14L20 14L20 13L19 13L19 12L18 12L18 11ZM27 11L27 12L26 12L26 13L28 13L28 11ZM40 11L40 12L41 12L41 11ZM42 12L42 13L40 13L40 14L42 14L42 13L43 13L43 12ZM15 13L15 14L16 14L16 15L14 15L14 16L16 16L16 15L18 15L18 14L19 14L19 13L18 13L18 14L16 14L16 13ZM48 13L48 15L49 15L49 13ZM11 15L11 16L12 16L12 15ZM32 15L32 16L33 16L33 15ZM20 16L20 17L21 17L21 16ZM40 16L40 17L39 17L39 18L41 18L41 19L38 19L38 20L39 20L39 21L41 21L41 22L42 22L42 21L43 21L43 22L44 22L44 21L43 21L43 20L42 20L42 21L41 21L41 19L42 19L42 18L43 18L43 19L44 19L44 18L43 18L43 16L42 16L42 17L41 17L41 16ZM48 16L48 17L49 17L49 16ZM4 18L4 19L5 19L5 20L6 20L6 19L7 19L7 18L6 18L6 19L5 19L5 18ZM19 18L19 20L20 20L20 19L21 19L21 18ZM45 19L45 20L46 20L46 19ZM47 19L47 22L46 22L46 23L47 23L47 22L48 22L48 19ZM1 20L1 21L2 21L2 20ZM9 20L9 21L10 21L10 20ZM16 20L16 22L15 22L15 23L16 23L16 22L17 22L17 23L18 23L18 22L17 22L17 20ZM31 21L31 23L32 23L32 24L33 24L33 23L32 23L32 21ZM33 21L33 22L34 22L34 21ZM20 22L20 23L21 23L21 24L22 24L22 23L21 23L21 22ZM29 22L29 23L30 23L30 22ZM5 23L5 26L8 26L8 23ZM23 23L23 26L26 26L26 23ZM37 23L37 24L38 24L38 23ZM41 23L41 26L44 26L44 23ZM3 24L3 25L4 25L4 24ZM6 24L6 25L7 25L7 24ZM24 24L24 25L25 25L25 24ZM42 24L42 25L43 25L43 24ZM2 26L2 27L4 27L4 26ZM9 26L9 27L8 27L8 28L7 28L7 27L5 27L5 28L7 28L7 29L6 29L6 30L7 30L7 29L9 29L9 27L10 27L10 26ZM36 27L36 28L37 28L37 27ZM41 27L41 28L43 28L43 27ZM26 28L26 30L27 30L27 28ZM1 29L1 30L0 30L0 31L1 31L1 32L4 32L4 33L5 33L5 32L4 32L4 31L1 31L1 30L4 30L4 29ZM20 30L20 31L21 31L21 33L22 33L22 31L23 31L23 30ZM24 30L24 31L25 31L25 32L23 32L23 33L25 33L25 32L27 32L27 31L25 31L25 30ZM30 31L30 32L33 32L33 31ZM34 31L34 32L36 32L36 31ZM40 32L40 33L41 33L41 34L42 34L42 33L41 33L41 32ZM0 33L0 34L1 34L1 33ZM26 33L26 35L28 35L28 34L27 34L27 33ZM13 34L13 35L12 35L12 36L13 36L13 37L14 37L14 38L15 38L15 39L16 39L16 38L15 38L15 37L17 37L17 38L18 38L18 39L19 39L19 40L20 40L20 38L18 38L18 37L19 37L19 36L20 36L20 37L21 37L21 36L22 36L22 37L23 37L23 36L25 36L25 37L24 37L24 38L23 38L23 39L24 39L24 38L26 38L26 37L27 37L27 36L25 36L25 34L22 34L22 35L20 35L20 34L19 34L19 35L18 35L18 36L16 36L16 35L15 35L15 34ZM30 34L30 35L29 35L29 36L31 36L31 35L33 35L33 34ZM13 35L13 36L14 36L14 37L15 37L15 35ZM22 35L22 36L23 36L23 35ZM43 37L43 38L40 38L40 39L39 39L39 40L42 40L42 39L43 39L43 38L44 38L44 40L45 40L45 42L47 42L47 41L48 41L48 40L47 40L47 39L46 39L46 40L45 40L45 38L44 38L44 37ZM6 40L6 41L7 41L7 40ZM12 40L12 42L13 42L13 40ZM23 41L23 44L26 44L26 41ZM41 41L41 44L44 44L44 41ZM18 42L18 43L20 43L20 42ZM21 42L21 44L20 44L20 45L19 45L19 44L18 44L18 45L19 45L19 47L20 47L20 45L21 45L21 44L22 44L22 42ZM24 42L24 43L25 43L25 42ZM29 42L29 43L30 43L30 44L31 44L31 43L30 43L30 42ZM42 42L42 43L43 43L43 42ZM8 43L8 44L9 44L9 43ZM45 43L45 44L46 44L46 43ZM47 44L47 45L48 45L48 44ZM9 45L9 46L10 46L10 48L9 48L9 49L10 49L10 48L13 48L13 49L15 49L15 48L13 48L13 47L15 47L15 46L13 46L13 47L11 47L11 45ZM25 45L25 46L26 46L26 47L27 47L27 45ZM39 45L39 46L41 46L41 45ZM47 46L47 47L48 47L48 46ZM32 47L32 48L33 48L33 47ZM36 47L36 48L35 48L35 49L38 49L38 48L37 48L37 47ZM16 48L16 49L18 49L18 48ZM0 0L0 7L7 7L7 0ZM1 1L1 6L6 6L6 1ZM2 2L2 5L5 5L5 2ZM42 0L42 7L49 7L49 0ZM43 1L43 6L48 6L48 1ZM44 2L44 5L47 5L47 2ZM0 42L0 49L7 49L7 42ZM1 43L1 48L6 48L6 43ZM2 44L2 47L5 47L5 44Z" fill="#000000"/></g></g></svg>
